<?xml version="1.0" encoding="UTF-8"?>
<svg id="Layer_1" data-name="Layer 1" xmlns="http://www.w3.org/2000/svg" viewBox="0 0 48.28 60.82">
  <defs>
    <style>
      .cls-1 {
        fill: none;
        stroke: #000;
        stroke-linecap: round;
        stroke-linejoin: round;
        stroke-width: 1.72px;
      }
    </style>
  </defs>
  <path class="cls-1" d="m43.61,35.05c.72.87,1.63,1.59,2.13,2.64.81,1.68,1.11,3.38.22,5.13-.19.37-.42.69-.74.95-1.01.82-1.43.69-2.2.23-1.67-1-3.18-2.2-4.54-3.6-.07-.07-.1-.19-.15-.29"/>
  <path class="cls-1" d="m31.47,31.02s1.96,2.05,2.58,2.72,5.3,4.19,8.19,2.07c3.45-2.53,3.5-6.06,1.51-9.64-.88-1.59-2.51-1.8-3.8-.56-.57.55-1,1.28-1.2,2.04-.28,1.07.19,1.87.23,2.91"/>
  <path class="cls-1" d="m47.42,11.38c-1.71.45-3.21,1.3-4.61,2.35-.38.29-.79.52-1.25.66"/>
  <path class="cls-1" d="m23.38,31.02c2.7,2.25,5.19,4.75,8.06,6.79,1.38.98,2.81,2.18,4.51,2.55,1.8.39,4.01-.88,3.56-2.97"/>
  <path class="cls-1" d="m38.7,10.21c.8,1.03,1.53,2.08,2.09,3.28.33.69.54,1.31.65,2.07.37,2.56.23,5.06-.45,7.56-.14.51-.78,2.3-.78,2.3"/>
  <path class="cls-1" d="m29.76,37.1c-.58,1.04-.27,2.1-.07,3.15.68,3.69,1.38,7.38,2.05,11.07.31,1.69.49,3.41.36,5.13-.12,1.44-.75,2.7-2.13,3.27-1.32.54-2.87.26-3.41-1.44-.65-2.02-1.16-4.09-1.7-6.15-1.13-4.27-2.18-8.57-3.43-12.81-.27-.93-.52-1.85-.69-2.8-.12-.67-.38-1.32-.57-1.98-.18-.65-.36-1.29-.3-1.98"/>
  <path class="cls-1" d="m32.4.86c-1.05.17-1.9.79-2.77,1.3-4.95,2.92-8,7.33-9.92,12.66-1.27,3.53-2.29,7.12-3.06,10.78-.44,2.06-1.48,3.83-2.58,5.56-3.02,4.72-6.1,9.4-9.3,14.01-1.17,1.69-2.34,3.39-3.44,5.13-.9,1.42-.46,3.13.87,3.8,1.1.56,2.22.4,3.29-.01,1.42-.55,2.24-1.79,3.16-2.91,2.65-3.25,5.3-6.49,8.19-9.54.91-.95,1.77-1.94,2.79-2.78.36-.3.72-.53,1.18-.58"/>
</svg>